<mxfile host="app.diagrams.net" modified="2021-11-19T02:45:14.695Z" agent="5.0 (Windows NT 10.0; Win64; x64) AppleWebKit/537.36 (KHTML, like Gecko) Chrome/95.0.4638.69 Safari/537.36" etag="oHD0rBBrX5JzPJ0kOJhs" version="15.7.4" type="github" pages="3">
  <diagram name="Page-1" id="12e1b939-464a-85fe-373e-61e167be1490">
    <mxGraphModel dx="1422" dy="705" grid="1" gridSize="10" guides="1" tooltips="1" connect="1" arrows="1" fold="1" page="1" pageScale="1.5" pageWidth="1169" pageHeight="826" background="none" math="0" shadow="0">
      <root>
        <mxCell id="0" />
        <mxCell id="1" parent="0" />
        <mxCell id="60da8b9f42644d3a-2" value="" style="whiteSpace=wrap;html=1;rounded=1;shadow=0;strokeWidth=8;fontSize=20;align=center;fillColor=#FED217;strokeColor=#FFFFFF;" parent="1" vertex="1">
          <mxGeometry x="65" y="90" width="280" height="430" as="geometry" />
        </mxCell>
        <mxCell id="60da8b9f42644d3a-3" value="消费者终端" style="text;html=1;strokeColor=none;fillColor=none;align=center;verticalAlign=middle;whiteSpace=wrap;rounded=0;shadow=0;fontSize=27;fontColor=#FFFFFF;fontStyle=1" parent="1" vertex="1">
          <mxGeometry x="65" y="110" width="280" height="60" as="geometry" />
        </mxCell>
        <mxCell id="60da8b9f42644d3a-4" value="浏览页面&lt;div style=&quot;font-size: 20px&quot;&gt;加购物车&lt;/div&gt;&lt;div style=&quot;font-size: 20px&quot;&gt;下单、结算、发票&lt;/div&gt;" style="text;html=1;strokeColor=none;fillColor=none;align=center;verticalAlign=middle;whiteSpace=wrap;rounded=0;shadow=0;fontSize=20;fontColor=#FFFFFF;fontStyle=1" parent="1" vertex="1">
          <mxGeometry x="65" y="410" width="280" height="90" as="geometry" />
        </mxCell>
        <mxCell id="60da8b9f42644d3a-6" value="" style="line;strokeWidth=2;html=1;rounded=0;shadow=0;fontSize=27;align=center;fillColor=none;strokeColor=#FFFFFF;" parent="1" vertex="1">
          <mxGeometry x="85" y="170" width="240" height="10" as="geometry" />
        </mxCell>
        <mxCell id="60da8b9f42644d3a-7" value="" style="line;strokeWidth=2;html=1;rounded=0;shadow=0;fontSize=27;align=center;fillColor=none;strokeColor=#FFFFFF;" parent="1" vertex="1">
          <mxGeometry x="85" y="390" width="240" height="10" as="geometry" />
        </mxCell>
        <mxCell id="60da8b9f42644d3a-8" value="APP、&lt;br style=&quot;font-size: 20px&quot;&gt;微信小程序" style="ellipse;whiteSpace=wrap;html=1;rounded=0;shadow=0;strokeWidth=6;fontSize=20;align=center;fillColor=#BFB4A9;strokeColor=#FFFFFF;fontColor=#FFFFFF;fontStyle=1" parent="1" vertex="1">
          <mxGeometry x="8" y="230" width="115" height="115" as="geometry" />
        </mxCell>
        <mxCell id="60da8b9f42644d3a-9" value="" style="html=1;shadow=0;dashed=0;align=center;verticalAlign=middle;shape=mxgraph.arrows2.stylisedArrow;dy=0.6;dx=40;notch=15;feather=0.4;rounded=0;strokeWidth=1;fontSize=27;strokeColor=none;fillColor=#fff2cc;" parent="1" vertex="1">
          <mxGeometry x="155" y="258" width="100" height="60" as="geometry" />
        </mxCell>
        <mxCell id="60da8b9f42644d3a-17" value="" style="whiteSpace=wrap;html=1;rounded=1;shadow=0;strokeWidth=8;fontSize=20;align=center;fillColor=#FFC001;strokeColor=#FFFFFF;" parent="1" vertex="1">
          <mxGeometry x="345" y="90" width="280" height="430" as="geometry" />
        </mxCell>
        <mxCell id="60da8b9f42644d3a-18" value="TCL商城平台" style="text;html=1;strokeColor=none;fillColor=none;align=center;verticalAlign=middle;whiteSpace=wrap;rounded=0;shadow=0;fontSize=27;fontColor=#FFFFFF;fontStyle=1" parent="1" vertex="1">
          <mxGeometry x="345" y="110" width="280" height="60" as="geometry" />
        </mxCell>
        <mxCell id="60da8b9f42644d3a-19" value="&lt;span style=&quot;font-size: 20px&quot;&gt;&lt;b&gt;个人手机号&lt;br&gt;收货人姓名&lt;br&gt;收货地址&lt;br&gt;邮箱&lt;br&gt;&lt;/b&gt;&lt;/span&gt;" style="text;html=1;strokeColor=none;fillColor=none;align=center;verticalAlign=middle;whiteSpace=wrap;rounded=0;shadow=0;fontSize=14;fontColor=#FFFFFF;" parent="1" vertex="1">
          <mxGeometry x="345" y="410" width="280" height="90" as="geometry" />
        </mxCell>
        <mxCell id="60da8b9f42644d3a-20" value="" style="line;strokeWidth=2;html=1;rounded=0;shadow=0;fontSize=27;align=center;fillColor=none;strokeColor=#FFFFFF;" parent="1" vertex="1">
          <mxGeometry x="365" y="170" width="240" height="10" as="geometry" />
        </mxCell>
        <mxCell id="60da8b9f42644d3a-21" value="" style="line;strokeWidth=2;html=1;rounded=0;shadow=0;fontSize=27;align=center;fillColor=none;strokeColor=#FFFFFF;" parent="1" vertex="1">
          <mxGeometry x="365" y="390" width="240" height="10" as="geometry" />
        </mxCell>
        <mxCell id="60da8b9f42644d3a-22" value="&lt;span style=&quot;font-size: 20px&quot;&gt;&lt;b&gt;订单数据&lt;/b&gt;&lt;/span&gt;" style="ellipse;whiteSpace=wrap;html=1;rounded=0;shadow=0;strokeWidth=6;fontSize=14;align=center;fillColor=#397DAA;strokeColor=#FFFFFF;fontColor=#FFFFFF;" parent="1" vertex="1">
          <mxGeometry x="288" y="230" width="115" height="115" as="geometry" />
        </mxCell>
        <mxCell id="60da8b9f42644d3a-23" value="" style="html=1;shadow=0;dashed=0;align=center;verticalAlign=middle;shape=mxgraph.arrows2.stylisedArrow;dy=0.6;dx=40;notch=15;feather=0.4;rounded=0;strokeWidth=1;fontSize=27;strokeColor=none;fillColor=#fff2cc;" parent="1" vertex="1">
          <mxGeometry x="435" y="258" width="100" height="60" as="geometry" />
        </mxCell>
        <mxCell id="60da8b9f42644d3a-24" value="" style="whiteSpace=wrap;html=1;rounded=1;shadow=0;strokeWidth=8;fontSize=20;align=center;fillColor=#FFB001;strokeColor=#FFFFFF;" parent="1" vertex="1">
          <mxGeometry x="625" y="90" width="280" height="430" as="geometry" />
        </mxCell>
        <mxCell id="60da8b9f42644d3a-25" value="TCL方舟中台" style="text;html=1;strokeColor=none;fillColor=none;align=center;verticalAlign=middle;whiteSpace=wrap;rounded=0;shadow=0;fontSize=27;fontColor=#FFFFFF;fontStyle=1" parent="1" vertex="1">
          <mxGeometry x="625" y="110" width="280" height="60" as="geometry" />
        </mxCell>
        <mxCell id="60da8b9f42644d3a-26" value="&lt;span style=&quot;font-size: 20px ; font-weight: 700&quot;&gt;浏览页面&lt;/span&gt;&lt;div style=&quot;font-size: 20px ; font-weight: 700&quot;&gt;加购物车&lt;/div&gt;&lt;div style=&quot;font-size: 20px ; font-weight: 700&quot;&gt;下单、结算、发票&lt;/div&gt;" style="text;html=1;strokeColor=none;fillColor=none;align=center;verticalAlign=middle;whiteSpace=wrap;rounded=0;shadow=0;fontSize=14;fontColor=#FFFFFF;" parent="1" vertex="1">
          <mxGeometry x="625" y="410" width="280" height="90" as="geometry" />
        </mxCell>
        <mxCell id="60da8b9f42644d3a-27" value="" style="line;strokeWidth=2;html=1;rounded=0;shadow=0;fontSize=27;align=center;fillColor=none;strokeColor=#FFFFFF;" parent="1" vertex="1">
          <mxGeometry x="645" y="170" width="240" height="10" as="geometry" />
        </mxCell>
        <mxCell id="60da8b9f42644d3a-28" value="" style="line;strokeWidth=2;html=1;rounded=0;shadow=0;fontSize=27;align=center;fillColor=none;strokeColor=#FFFFFF;" parent="1" vertex="1">
          <mxGeometry x="645" y="390" width="240" height="10" as="geometry" />
        </mxCell>
        <mxCell id="60da8b9f42644d3a-29" value="&lt;b style=&quot;font-size: 20px&quot;&gt;订单数据&lt;/b&gt;" style="ellipse;whiteSpace=wrap;html=1;rounded=0;shadow=0;strokeWidth=6;fontSize=14;align=center;fillColor=#EF9353;strokeColor=#FFFFFF;fontColor=#FFFFFF;" parent="1" vertex="1">
          <mxGeometry x="568" y="230" width="115" height="115" as="geometry" />
        </mxCell>
        <mxCell id="60da8b9f42644d3a-30" value="" style="html=1;shadow=0;dashed=0;align=center;verticalAlign=middle;shape=mxgraph.arrows2.stylisedArrow;dy=0.6;dx=40;notch=15;feather=0.4;rounded=0;strokeWidth=1;fontSize=27;strokeColor=none;fillColor=#fff2cc;" parent="1" vertex="1">
          <mxGeometry x="715" y="258" width="100" height="60" as="geometry" />
        </mxCell>
        <mxCell id="60da8b9f42644d3a-31" value="" style="whiteSpace=wrap;html=1;rounded=1;shadow=0;strokeWidth=8;fontSize=20;align=center;fillColor=#FE9900;strokeColor=#FFFFFF;" parent="1" vertex="1">
          <mxGeometry x="905" y="90" width="280" height="430" as="geometry" />
        </mxCell>
        <mxCell id="60da8b9f42644d3a-32" value="TCL CRM销售系统" style="text;html=1;strokeColor=none;fillColor=none;align=center;verticalAlign=middle;whiteSpace=wrap;rounded=0;shadow=0;fontSize=27;fontColor=#FFFFFF;fontStyle=1" parent="1" vertex="1">
          <mxGeometry x="905" y="110" width="280" height="60" as="geometry" />
        </mxCell>
        <mxCell id="60da8b9f42644d3a-33" value="&lt;span style=&quot;font-size: 20px ; font-weight: 700&quot;&gt;浏览页面&lt;/span&gt;&lt;div style=&quot;font-size: 20px ; font-weight: 700&quot;&gt;加购物车&lt;/div&gt;&lt;div style=&quot;font-size: 20px ; font-weight: 700&quot;&gt;下单、结算、发票&lt;/div&gt;" style="text;html=1;strokeColor=none;fillColor=none;align=center;verticalAlign=middle;whiteSpace=wrap;rounded=0;shadow=0;fontSize=14;fontColor=#FFFFFF;" parent="1" vertex="1">
          <mxGeometry x="905" y="410" width="280" height="90" as="geometry" />
        </mxCell>
        <mxCell id="60da8b9f42644d3a-34" value="" style="line;strokeWidth=2;html=1;rounded=0;shadow=0;fontSize=27;align=center;fillColor=none;strokeColor=#FFFFFF;" parent="1" vertex="1">
          <mxGeometry x="925" y="170" width="240" height="10" as="geometry" />
        </mxCell>
        <mxCell id="60da8b9f42644d3a-35" value="" style="line;strokeWidth=2;html=1;rounded=0;shadow=0;fontSize=27;align=center;fillColor=none;strokeColor=#FFFFFF;" parent="1" vertex="1">
          <mxGeometry x="925" y="390" width="240" height="10" as="geometry" />
        </mxCell>
        <mxCell id="60da8b9f42644d3a-36" value="&lt;b style=&quot;font-size: 20px&quot;&gt;订单数据&lt;/b&gt;" style="ellipse;whiteSpace=wrap;html=1;rounded=0;shadow=0;strokeWidth=6;fontSize=14;align=center;fillColor=#68B85C;strokeColor=#FFFFFF;fontColor=#FFFFFF;" parent="1" vertex="1">
          <mxGeometry x="848" y="230" width="115" height="115" as="geometry" />
        </mxCell>
        <mxCell id="60da8b9f42644d3a-37" value="" style="html=1;shadow=0;dashed=0;align=center;verticalAlign=middle;shape=mxgraph.arrows2.stylisedArrow;dy=0.6;dx=40;notch=15;feather=0.4;rounded=0;strokeWidth=1;fontSize=27;strokeColor=none;fillColor=#fff2cc;" parent="1" vertex="1">
          <mxGeometry x="995" y="258" width="100" height="60" as="geometry" />
        </mxCell>
        <mxCell id="5H6u6VppD-pFI-PKJdRa-6" value="" style="whiteSpace=wrap;html=1;rounded=1;shadow=0;strokeWidth=8;fontSize=20;align=center;fillColor=#FE9900;strokeColor=#FFFFFF;" parent="1" vertex="1">
          <mxGeometry x="1185" y="90" width="280" height="430" as="geometry" />
        </mxCell>
        <mxCell id="5H6u6VppD-pFI-PKJdRa-7" value="TCL SAP系统" style="text;html=1;strokeColor=none;fillColor=none;align=center;verticalAlign=middle;whiteSpace=wrap;rounded=0;shadow=0;fontSize=27;fontColor=#FFFFFF;fontStyle=1" parent="1" vertex="1">
          <mxGeometry x="1185" y="110" width="280" height="60" as="geometry" />
        </mxCell>
        <mxCell id="5H6u6VppD-pFI-PKJdRa-8" value="&lt;span style=&quot;font-size: 20px ; font-weight: 700&quot;&gt;浏览页面&lt;/span&gt;&lt;div style=&quot;font-size: 20px ; font-weight: 700&quot;&gt;加购物车&lt;/div&gt;&lt;div style=&quot;font-size: 20px ; font-weight: 700&quot;&gt;下单、结算、发票&lt;/div&gt;" style="text;html=1;strokeColor=none;fillColor=none;align=center;verticalAlign=middle;whiteSpace=wrap;rounded=0;shadow=0;fontSize=14;fontColor=#FFFFFF;" parent="1" vertex="1">
          <mxGeometry x="1185" y="410" width="280" height="90" as="geometry" />
        </mxCell>
        <mxCell id="5H6u6VppD-pFI-PKJdRa-9" value="" style="line;strokeWidth=2;html=1;rounded=0;shadow=0;fontSize=27;align=center;fillColor=none;strokeColor=#FFFFFF;" parent="1" vertex="1">
          <mxGeometry x="1205" y="170" width="240" height="10" as="geometry" />
        </mxCell>
        <mxCell id="5H6u6VppD-pFI-PKJdRa-10" value="" style="line;strokeWidth=2;html=1;rounded=0;shadow=0;fontSize=27;align=center;fillColor=none;strokeColor=#FFFFFF;" parent="1" vertex="1">
          <mxGeometry x="1205" y="390" width="240" height="10" as="geometry" />
        </mxCell>
        <mxCell id="5H6u6VppD-pFI-PKJdRa-11" value="" style="html=1;shadow=0;dashed=0;align=center;verticalAlign=middle;shape=mxgraph.arrows2.stylisedArrow;dy=0.6;dx=40;notch=15;feather=0.4;rounded=0;strokeWidth=1;fontSize=27;strokeColor=none;fillColor=#fff2cc;" parent="1" vertex="1">
          <mxGeometry x="1275" y="258" width="100" height="60" as="geometry" />
        </mxCell>
        <mxCell id="60da8b9f42644d3a-38" value="&lt;b style=&quot;font-size: 20px&quot;&gt;订单数据&lt;/b&gt;" style="ellipse;whiteSpace=wrap;html=1;rounded=0;shadow=0;strokeWidth=6;fontSize=14;align=center;fillColor=#BF639A;strokeColor=#FFFFFF;fontColor=#FFFFFF;" parent="1" vertex="1">
          <mxGeometry x="1128" y="230" width="115" height="115" as="geometry" />
        </mxCell>
        <mxCell id="5H6u6VppD-pFI-PKJdRa-13" value="" style="whiteSpace=wrap;html=1;rounded=1;shadow=0;strokeWidth=8;fontSize=20;align=center;fillColor=#FE9900;strokeColor=#FFFFFF;" parent="1" vertex="1">
          <mxGeometry x="1465" y="90" width="280" height="430" as="geometry" />
        </mxCell>
        <mxCell id="5H6u6VppD-pFI-PKJdRa-14" value="TCL ACME发票系统" style="text;html=1;strokeColor=none;fillColor=none;align=center;verticalAlign=middle;whiteSpace=wrap;rounded=0;shadow=0;fontSize=27;fontColor=#FFFFFF;fontStyle=1" parent="1" vertex="1">
          <mxGeometry x="1465" y="110" width="280" height="60" as="geometry" />
        </mxCell>
        <mxCell id="5H6u6VppD-pFI-PKJdRa-15" value="&lt;span style=&quot;font-size: 20px ; font-weight: 700&quot;&gt;浏览页面&lt;/span&gt;&lt;div style=&quot;font-size: 20px ; font-weight: 700&quot;&gt;加购物车&lt;/div&gt;&lt;div style=&quot;font-size: 20px ; font-weight: 700&quot;&gt;下单、结算、发票&lt;/div&gt;" style="text;html=1;strokeColor=none;fillColor=none;align=center;verticalAlign=middle;whiteSpace=wrap;rounded=0;shadow=0;fontSize=14;fontColor=#FFFFFF;" parent="1" vertex="1">
          <mxGeometry x="1465" y="410" width="280" height="90" as="geometry" />
        </mxCell>
        <mxCell id="5H6u6VppD-pFI-PKJdRa-16" value="" style="line;strokeWidth=2;html=1;rounded=0;shadow=0;fontSize=27;align=center;fillColor=none;strokeColor=#FFFFFF;" parent="1" vertex="1">
          <mxGeometry x="1485" y="170" width="240" height="10" as="geometry" />
        </mxCell>
        <mxCell id="5H6u6VppD-pFI-PKJdRa-17" value="" style="line;strokeWidth=2;html=1;rounded=0;shadow=0;fontSize=27;align=center;fillColor=none;strokeColor=#FFFFFF;" parent="1" vertex="1">
          <mxGeometry x="1485" y="390" width="240" height="10" as="geometry" />
        </mxCell>
        <mxCell id="5H6u6VppD-pFI-PKJdRa-12" value="&lt;b style=&quot;font-size: 20px&quot;&gt;订单数据&lt;/b&gt;" style="ellipse;whiteSpace=wrap;html=1;rounded=0;shadow=0;strokeWidth=6;fontSize=14;align=center;fillColor=#BF639A;strokeColor=#FFFFFF;fontColor=#FFFFFF;" parent="1" vertex="1">
          <mxGeometry x="1408" y="230" width="115.5" height="115" as="geometry" />
        </mxCell>
      </root>
    </mxGraphModel>
  </diagram>
  <diagram id="lnjSVuXio5rkpdUZqMze" name="线上ERP-官网、开单">
    <mxGraphModel dx="1422" dy="705" grid="1" gridSize="10" guides="1" tooltips="1" connect="1" arrows="1" fold="1" page="1" pageScale="1" pageWidth="2339" pageHeight="3300" math="0" shadow="0">
      <root>
        <mxCell id="UyVEhWV0Ns6B0jWs4XKX-0" />
        <mxCell id="UyVEhWV0Ns6B0jWs4XKX-1" parent="UyVEhWV0Ns6B0jWs4XKX-0" />
        <mxCell id="qTQWNZpA5t58XKGIrSBr-0" value="" style="rounded=0;whiteSpace=wrap;html=1;fontSize=20;dashed=1;align=left;" parent="UyVEhWV0Ns6B0jWs4XKX-1" vertex="1">
          <mxGeometry x="520.5" y="680" width="249.5" height="440" as="geometry" />
        </mxCell>
        <mxCell id="qTQWNZpA5t58XKGIrSBr-1" value="" style="rounded=0;whiteSpace=wrap;html=1;fontSize=20;dashed=1;" parent="UyVEhWV0Ns6B0jWs4XKX-1" vertex="1">
          <mxGeometry x="100" y="720" width="210" height="340" as="geometry" />
        </mxCell>
        <mxCell id="qTQWNZpA5t58XKGIrSBr-2" value="PC" style="rounded=1;whiteSpace=wrap;html=1;dashed=1;dashPattern=1 1;fontSize=20;" parent="UyVEhWV0Ns6B0jWs4XKX-1" vertex="1">
          <mxGeometry x="155" y="770" width="120" height="60" as="geometry" />
        </mxCell>
        <mxCell id="qTQWNZpA5t58XKGIrSBr-3" value="H5" style="rounded=1;whiteSpace=wrap;html=1;dashed=1;dashPattern=1 1;fontSize=20;" parent="UyVEhWV0Ns6B0jWs4XKX-1" vertex="1">
          <mxGeometry x="155" y="950" width="120" height="60" as="geometry" />
        </mxCell>
        <mxCell id="qTQWNZpA5t58XKGIrSBr-4" value="TCL商城平台" style="rounded=1;whiteSpace=wrap;html=1;dashed=1;dashPattern=1 1;fontSize=20;" parent="UyVEhWV0Ns6B0jWs4XKX-1" vertex="1">
          <mxGeometry x="595" y="719" width="120" height="60" as="geometry" />
        </mxCell>
        <mxCell id="qTQWNZpA5t58XKGIrSBr-6" value="酷友NC销售系统" style="rounded=1;whiteSpace=wrap;html=1;dashed=1;dashPattern=1 1;fontSize=20;" parent="UyVEhWV0Ns6B0jWs4XKX-1" vertex="1">
          <mxGeometry x="595" y="819" width="120" height="60" as="geometry" />
        </mxCell>
        <mxCell id="qTQWNZpA5t58XKGIrSBr-7" value="SAP系统" style="rounded=1;whiteSpace=wrap;html=1;dashed=1;dashPattern=1 1;fontSize=20;" parent="UyVEhWV0Ns6B0jWs4XKX-1" vertex="1">
          <mxGeometry x="595" y="919" width="120" height="60" as="geometry" />
        </mxCell>
        <mxCell id="qTQWNZpA5t58XKGIrSBr-8" value="NC-DBI发票系统" style="rounded=1;whiteSpace=wrap;html=1;dashed=1;dashPattern=1 1;fontSize=20;" parent="UyVEhWV0Ns6B0jWs4XKX-1" vertex="1">
          <mxGeometry x="595" y="1019" width="120" height="60" as="geometry" />
        </mxCell>
        <mxCell id="qTQWNZpA5t58XKGIrSBr-9" value="" style="endArrow=classic;html=1;fontSize=20;" parent="UyVEhWV0Ns6B0jWs4XKX-1" edge="1">
          <mxGeometry width="50" height="50" relative="1" as="geometry">
            <mxPoint x="310" y="890" as="sourcePoint" />
            <mxPoint x="520" y="890" as="targetPoint" />
          </mxGeometry>
        </mxCell>
        <mxCell id="qTQWNZpA5t58XKGIrSBr-10" value="&lt;font style=&quot;font-size: 16px&quot;&gt;个人手机号&lt;br&gt;收货人姓名&lt;br&gt;收货地址&lt;br&gt;邮箱&lt;br&gt;发票信息&lt;br&gt;&lt;/font&gt;" style="edgeLabel;html=1;align=center;verticalAlign=middle;resizable=0;points=[];fontSize=20;" parent="qTQWNZpA5t58XKGIrSBr-9" vertex="1" connectable="0">
          <mxGeometry x="0.2824" y="-5" relative="1" as="geometry">
            <mxPoint x="-34" y="-85" as="offset" />
          </mxGeometry>
        </mxCell>
        <mxCell id="qTQWNZpA5t58XKGIrSBr-11" value="SPD物流系统" style="rounded=1;whiteSpace=wrap;html=1;dashed=1;dashPattern=1 1;fontSize=20;" parent="UyVEhWV0Ns6B0jWs4XKX-1" vertex="1">
          <mxGeometry x="940" y="870" width="120" height="60" as="geometry" />
        </mxCell>
        <mxCell id="qTQWNZpA5t58XKGIrSBr-12" value="TCL财务共享资金系统" style="rounded=1;whiteSpace=wrap;html=1;dashed=1;dashPattern=1 1;fontSize=20;" parent="UyVEhWV0Ns6B0jWs4XKX-1" vertex="1">
          <mxGeometry x="1080.75" y="470" width="120" height="60" as="geometry" />
        </mxCell>
        <mxCell id="qTQWNZpA5t58XKGIrSBr-13" value="" style="endArrow=classic;html=1;fontSize=20;exitX=0.997;exitY=0.077;exitDx=0;exitDy=0;exitPerimeter=0;entryX=0;entryY=0.5;entryDx=0;entryDy=0;" parent="UyVEhWV0Ns6B0jWs4XKX-1" target="qTQWNZpA5t58XKGIrSBr-12" edge="1">
          <mxGeometry width="50" height="50" relative="1" as="geometry">
            <mxPoint x="900.0014999999999" y="499.8800000000001" as="sourcePoint" />
            <mxPoint x="1210.75" y="581" as="targetPoint" />
          </mxGeometry>
        </mxCell>
        <mxCell id="qTQWNZpA5t58XKGIrSBr-14" value="银行卡-资金分佣" style="edgeLabel;html=1;align=center;verticalAlign=middle;resizable=0;points=[];fontSize=20;" parent="qTQWNZpA5t58XKGIrSBr-13" vertex="1" connectable="0">
          <mxGeometry x="-0.3066" y="-2" relative="1" as="geometry">
            <mxPoint x="25" y="-21" as="offset" />
          </mxGeometry>
        </mxCell>
        <mxCell id="qTQWNZpA5t58XKGIrSBr-15" value="" style="endArrow=classic;html=1;fontSize=20;exitX=1;exitY=0.5;exitDx=0;exitDy=0;entryX=0;entryY=0.5;entryDx=0;entryDy=0;" parent="UyVEhWV0Ns6B0jWs4XKX-1" source="qTQWNZpA5t58XKGIrSBr-0" target="qTQWNZpA5t58XKGIrSBr-11" edge="1">
          <mxGeometry width="50" height="50" relative="1" as="geometry">
            <mxPoint x="900" y="850" as="sourcePoint" />
            <mxPoint x="950" y="800" as="targetPoint" />
          </mxGeometry>
        </mxCell>
        <mxCell id="qTQWNZpA5t58XKGIrSBr-16" value="订单物流送货" style="edgeLabel;html=1;align=center;verticalAlign=middle;resizable=0;points=[];fontSize=20;" parent="qTQWNZpA5t58XKGIrSBr-15" vertex="1" connectable="0">
          <mxGeometry x="0.1273" y="3" relative="1" as="geometry">
            <mxPoint x="-17" y="-17" as="offset" />
          </mxGeometry>
        </mxCell>
        <mxCell id="qTQWNZpA5t58XKGIrSBr-17" value="订单&lt;br&gt;&lt;br&gt;发票&lt;br&gt;&lt;br&gt;资金" style="text;html=1;strokeColor=none;fillColor=none;align=center;verticalAlign=middle;whiteSpace=wrap;rounded=0;dashed=1;dashPattern=1 1;fontSize=20;" parent="UyVEhWV0Ns6B0jWs4XKX-1" vertex="1">
          <mxGeometry x="528" y="680" width="40" height="480" as="geometry" />
        </mxCell>
        <mxCell id="qTQWNZpA5t58XKGIrSBr-18" value="消费者终端" style="text;html=1;strokeColor=none;fillColor=none;align=center;verticalAlign=middle;whiteSpace=wrap;rounded=0;dashed=1;dashPattern=1 1;fontSize=20;" parent="UyVEhWV0Ns6B0jWs4XKX-1" vertex="1">
          <mxGeometry x="100" y="730" width="40" height="330" as="geometry" />
        </mxCell>
      </root>
    </mxGraphModel>
  </diagram>
  <diagram name="线下ERP（thome、T云店）" id="hYF_OZrIGDoJHSAcwRBI">
    <mxGraphModel dx="1422" dy="705" grid="1" gridSize="10" guides="1" tooltips="1" connect="1" arrows="1" fold="1" page="1" pageScale="1" pageWidth="2339" pageHeight="3300" math="0" shadow="0">
      <root>
        <mxCell id="2Hiko30GWigl3INK3mEs-0" />
        <mxCell id="2Hiko30GWigl3INK3mEs-1" parent="2Hiko30GWigl3INK3mEs-0" />
        <mxCell id="2Hiko30GWigl3INK3mEs-2" value="" style="rounded=0;whiteSpace=wrap;html=1;fontSize=20;dashed=1;align=left;" parent="2Hiko30GWigl3INK3mEs-1" vertex="1">
          <mxGeometry x="520.5" y="670" width="249.5" height="500" as="geometry" />
        </mxCell>
        <mxCell id="2Hiko30GWigl3INK3mEs-3" value="" style="rounded=0;whiteSpace=wrap;html=1;fontSize=20;dashed=1;" parent="2Hiko30GWigl3INK3mEs-1" vertex="1">
          <mxGeometry x="100" y="720" width="210" height="340" as="geometry" />
        </mxCell>
        <mxCell id="2Hiko30GWigl3INK3mEs-4" value="APP" style="rounded=1;whiteSpace=wrap;html=1;dashed=1;dashPattern=1 1;fontSize=20;" parent="2Hiko30GWigl3INK3mEs-1" vertex="1">
          <mxGeometry x="155" y="770" width="120" height="60" as="geometry" />
        </mxCell>
        <mxCell id="2Hiko30GWigl3INK3mEs-5" value="微信小程序" style="rounded=1;whiteSpace=wrap;html=1;dashed=1;dashPattern=1 1;fontSize=20;" parent="2Hiko30GWigl3INK3mEs-1" vertex="1">
          <mxGeometry x="155" y="950" width="120" height="60" as="geometry" />
        </mxCell>
        <mxCell id="2Hiko30GWigl3INK3mEs-6" value="TCL商城平台" style="rounded=1;whiteSpace=wrap;html=1;dashed=1;dashPattern=1 1;fontSize=20;" parent="2Hiko30GWigl3INK3mEs-1" vertex="1">
          <mxGeometry x="595" y="680" width="120" height="60" as="geometry" />
        </mxCell>
        <mxCell id="2Hiko30GWigl3INK3mEs-7" value="TCL方舟中台" style="rounded=1;whiteSpace=wrap;html=1;dashed=1;dashPattern=1 1;fontSize=20;" parent="2Hiko30GWigl3INK3mEs-1" vertex="1">
          <mxGeometry x="595" y="790" width="120" height="60" as="geometry" />
        </mxCell>
        <mxCell id="2Hiko30GWigl3INK3mEs-8" value="CRM销售系统" style="rounded=1;whiteSpace=wrap;html=1;dashed=1;dashPattern=1 1;fontSize=20;" parent="2Hiko30GWigl3INK3mEs-1" vertex="1">
          <mxGeometry x="595" y="890" width="120" height="60" as="geometry" />
        </mxCell>
        <mxCell id="2Hiko30GWigl3INK3mEs-9" value="SAP系统" style="rounded=1;whiteSpace=wrap;html=1;dashed=1;dashPattern=1 1;fontSize=20;" parent="2Hiko30GWigl3INK3mEs-1" vertex="1">
          <mxGeometry x="595" y="990" width="120" height="60" as="geometry" />
        </mxCell>
        <mxCell id="2Hiko30GWigl3INK3mEs-10" value="ACME发票系统" style="rounded=1;whiteSpace=wrap;html=1;dashed=1;dashPattern=1 1;fontSize=20;" parent="2Hiko30GWigl3INK3mEs-1" vertex="1">
          <mxGeometry x="595" y="1090" width="120" height="60" as="geometry" />
        </mxCell>
        <mxCell id="2Hiko30GWigl3INK3mEs-11" value="" style="endArrow=classic;html=1;fontSize=20;" parent="2Hiko30GWigl3INK3mEs-1" edge="1">
          <mxGeometry width="50" height="50" relative="1" as="geometry">
            <mxPoint x="310" y="890" as="sourcePoint" />
            <mxPoint x="520" y="890" as="targetPoint" />
          </mxGeometry>
        </mxCell>
        <mxCell id="2Hiko30GWigl3INK3mEs-12" value="&lt;font style=&quot;font-size: 16px&quot;&gt;个人手机号&lt;br&gt;收货人姓名&lt;br&gt;收货地址&lt;br&gt;邮箱&lt;br&gt;企业发票信息&lt;br&gt;银行卡信息&lt;br&gt;&lt;/font&gt;" style="edgeLabel;html=1;align=center;verticalAlign=middle;resizable=0;points=[];fontSize=20;" parent="2Hiko30GWigl3INK3mEs-11" vertex="1" connectable="0">
          <mxGeometry x="0.2824" y="-5" relative="1" as="geometry">
            <mxPoint x="-34" y="-85" as="offset" />
          </mxGeometry>
        </mxCell>
        <mxCell id="2Hiko30GWigl3INK3mEs-13" value="SPD物流系统" style="rounded=1;whiteSpace=wrap;html=1;dashed=1;dashPattern=1 1;fontSize=20;" parent="2Hiko30GWigl3INK3mEs-1" vertex="1">
          <mxGeometry x="940" y="890" width="120" height="60" as="geometry" />
        </mxCell>
        <mxCell id="2Hiko30GWigl3INK3mEs-14" value="TCL财务共享资金系统" style="rounded=1;whiteSpace=wrap;html=1;dashed=1;dashPattern=1 1;fontSize=20;" parent="2Hiko30GWigl3INK3mEs-1" vertex="1">
          <mxGeometry x="940" y="680" width="120" height="60" as="geometry" />
        </mxCell>
        <mxCell id="2Hiko30GWigl3INK3mEs-15" value="" style="endArrow=classic;html=1;fontSize=20;exitX=0.997;exitY=0.077;exitDx=0;exitDy=0;exitPerimeter=0;entryX=0;entryY=0.5;entryDx=0;entryDy=0;" parent="2Hiko30GWigl3INK3mEs-1" source="2Hiko30GWigl3INK3mEs-2" target="2Hiko30GWigl3INK3mEs-14" edge="1">
          <mxGeometry width="50" height="50" relative="1" as="geometry">
            <mxPoint x="1030" y="845" as="sourcePoint" />
            <mxPoint x="1080" y="795" as="targetPoint" />
          </mxGeometry>
        </mxCell>
        <mxCell id="2Hiko30GWigl3INK3mEs-16" value="银行卡-资金分佣" style="edgeLabel;html=1;align=center;verticalAlign=middle;resizable=0;points=[];fontSize=20;" parent="2Hiko30GWigl3INK3mEs-15" vertex="1" connectable="0">
          <mxGeometry x="-0.3066" y="-2" relative="1" as="geometry">
            <mxPoint x="25" y="-21" as="offset" />
          </mxGeometry>
        </mxCell>
        <mxCell id="2Hiko30GWigl3INK3mEs-17" value="" style="endArrow=classic;html=1;fontSize=20;exitX=1;exitY=0.5;exitDx=0;exitDy=0;entryX=0;entryY=0.5;entryDx=0;entryDy=0;" parent="2Hiko30GWigl3INK3mEs-1" source="2Hiko30GWigl3INK3mEs-2" target="2Hiko30GWigl3INK3mEs-13" edge="1">
          <mxGeometry width="50" height="50" relative="1" as="geometry">
            <mxPoint x="900" y="850" as="sourcePoint" />
            <mxPoint x="950" y="800" as="targetPoint" />
          </mxGeometry>
        </mxCell>
        <mxCell id="2Hiko30GWigl3INK3mEs-18" value="订单物流送货" style="edgeLabel;html=1;align=center;verticalAlign=middle;resizable=0;points=[];fontSize=20;" parent="2Hiko30GWigl3INK3mEs-17" vertex="1" connectable="0">
          <mxGeometry x="0.1273" y="3" relative="1" as="geometry">
            <mxPoint x="-17" y="-17" as="offset" />
          </mxGeometry>
        </mxCell>
        <mxCell id="2Hiko30GWigl3INK3mEs-19" value="订单&lt;br&gt;&lt;br&gt;发票&lt;br&gt;&lt;br&gt;资金" style="text;html=1;strokeColor=none;fillColor=none;align=center;verticalAlign=middle;whiteSpace=wrap;rounded=0;dashed=1;dashPattern=1 1;fontSize=20;" parent="2Hiko30GWigl3INK3mEs-1" vertex="1">
          <mxGeometry x="528" y="680" width="40" height="480" as="geometry" />
        </mxCell>
        <mxCell id="2Hiko30GWigl3INK3mEs-20" value="消费者终端" style="text;html=1;strokeColor=none;fillColor=none;align=center;verticalAlign=middle;whiteSpace=wrap;rounded=0;dashed=1;dashPattern=1 1;fontSize=20;" parent="2Hiko30GWigl3INK3mEs-1" vertex="1">
          <mxGeometry x="100" y="730" width="40" height="330" as="geometry" />
        </mxCell>
      </root>
    </mxGraphModel>
  </diagram>
</mxfile>
